<svg width="57" height="57" viewBox="0 0 57 57" fill="none" xmlns="http://www.w3.org/2000/svg">
<path d="M28.5 16.625C31.1234 16.625 33.25 14.4984 33.25 11.875C33.25 9.25165 31.1234 7.125 28.5 7.125C25.8766 7.125 23.75 9.25165 23.75 11.875C23.75 14.4984 25.8766 16.625 28.5 16.625Z" stroke="#4644EF" stroke-width="2.75" stroke-linecap="round" stroke-linejoin="round"/>
<path d="M11.875 49.875C14.4984 49.875 16.625 47.7484 16.625 45.125C16.625 42.5016 14.4984 40.375 11.875 40.375C9.25165 40.375 7.125 42.5016 7.125 45.125C7.125 47.7484 9.25165 49.875 11.875 49.875Z" stroke="#4644EF" stroke-width="2.75" stroke-linecap="round" stroke-linejoin="round"/>
<path d="M45.125 49.875C47.7484 49.875 49.875 47.7484 49.875 45.125C49.875 42.5016 47.7484 40.375 45.125 40.375C42.5016 40.375 40.375 42.5016 40.375 45.125C40.375 47.7484 42.5016 49.875 45.125 49.875Z" stroke="#4644EF" stroke-width="2.75" stroke-linecap="round" stroke-linejoin="round"/>
<path d="M28.5 40.375C32.435 40.375 35.625 37.185 35.625 33.25C35.625 29.315 32.435 26.125 28.5 26.125C24.565 26.125 21.375 29.315 21.375 33.25C21.375 37.185 24.565 40.375 28.5 40.375Z" stroke="#4644EF" stroke-width="2.75" stroke-linecap="round" stroke-linejoin="round"/>
<path d="M28.5 16.625V26.125" stroke="#4644EF" stroke-width="2.75" stroke-linecap="round" stroke-linejoin="round"/>
<path d="M15.9126 42.275L22.5626 37.525" stroke="#4644EF" stroke-width="2.75" stroke-linecap="round" stroke-linejoin="round"/>
<path d="M41.0875 42.275L34.4375 37.525" stroke="#4644EF" stroke-width="2.75" stroke-linecap="round" stroke-linejoin="round"/>
</svg>
