<svg width="95" height="95" viewBox="0 0 95 95" fill="none" xmlns="http://www.w3.org/2000/svg">
<path d="M47.8652 45.8382C47.8674 42.4844 46.9704 39.1912 45.2675 36.3019C45.183 36.1507 45.0692 36.0179 44.9327 35.9114C44.7961 35.8048 44.6397 35.7267 44.4725 35.6815C44.3053 35.6363 44.1308 35.625 43.9592 35.6482C43.7876 35.6715 43.6224 35.7288 43.4733 35.8169C43.3241 35.9049 43.1941 36.0219 43.0909 36.1609C42.9876 36.3 42.9132 36.4583 42.872 36.6265C42.8309 36.7947 42.8237 36.9694 42.8511 37.1404C42.8784 37.3114 42.9397 37.4752 43.0313 37.6222C45.0361 41.0276 45.7254 45.049 44.969 48.9276C44.2126 52.8063 42.0629 56.274 38.9254 58.6766C35.7879 61.0791 31.8796 62.2504 27.9379 61.9694C23.9962 61.6884 20.2936 59.9746 17.5287 57.1512C14.7638 54.3279 13.1277 50.5903 12.9292 46.6435C12.7307 42.6968 13.9834 38.8139 16.451 35.7273C18.9186 32.6408 22.4306 30.564 26.3242 29.8889C30.2178 29.2137 34.2239 29.9869 37.5866 32.0625C37.7317 32.156 37.8939 32.2196 38.0638 32.2496C38.2338 32.2797 38.408 32.2756 38.5763 32.2376C38.7447 32.1995 38.9037 32.1283 39.0442 32.0281C39.1847 31.9279 39.3039 31.8007 39.3947 31.654C39.4855 31.5072 39.5461 31.3438 39.573 31.1734C39.5999 31.0029 39.5926 30.8288 39.5515 30.6612C39.5104 30.4936 39.4363 30.3358 39.3335 30.1972C39.2307 30.0586 39.1014 29.9418 38.953 29.8537C35.4151 27.6685 31.252 26.7191 27.1165 27.1544C22.9809 27.5897 19.1068 29.3851 16.1014 32.259C13.096 35.133 11.1294 38.9231 10.5098 43.0351C9.89016 47.147 10.6526 51.3483 12.6777 54.9803C14.7027 58.6123 17.8758 61.4696 21.6994 63.1043C25.523 64.7389 29.781 65.0584 33.8057 64.0127C37.8305 62.967 41.3944 60.6153 43.9388 57.3262C46.4832 54.0371 47.8642 49.9966 47.8652 45.8382Z" fill="#4644EF"/>
<path d="M19.9604 48.2377C19.8729 47.9045 19.6566 47.6196 19.3591 47.4459C19.0616 47.2721 18.7072 47.2236 18.374 47.3111C18.0407 47.3986 17.7559 47.6149 17.5821 47.9124C17.4083 48.2099 17.3599 48.5643 17.4474 48.8975C18.1894 51.7209 19.9327 54.1781 22.3524 55.8112C24.7721 57.4443 27.7031 58.1419 30.599 57.7738C33.495 57.4058 36.1583 55.9973 38.0926 53.8109C40.0269 51.6244 41.1002 48.8092 41.1124 45.89C41.1246 42.9708 40.0749 40.1467 38.159 37.9442C36.243 35.7417 33.5916 34.3109 30.6988 33.9187C27.806 33.5264 24.8693 34.1994 22.436 35.8123C20.0028 37.4251 18.2389 39.8676 17.4733 42.6847C17.384 43.0169 17.4302 43.3709 17.6016 43.6691C17.773 43.9673 18.0557 44.1854 18.3877 44.2754C18.7197 44.3654 19.0738 44.3201 19.3724 44.1493C19.671 43.9786 19.8897 43.6963 19.9804 43.3645C20.5808 41.1561 21.9636 39.2412 23.8713 37.9769C25.779 36.7125 28.0813 36.1849 30.3491 36.4924C32.617 36.7999 34.6957 37.9215 36.1978 39.6482C37.6999 41.3749 38.5229 43.5888 38.5135 45.8774C38.5041 48.166 37.6629 50.3731 36.1466 52.0873C34.6304 53.8016 32.5425 54.9061 30.2722 55.1949C28.0019 55.4837 25.704 54.9372 23.8068 53.6572C21.9096 52.3772 20.5426 50.4511 19.9604 48.2377Z" fill="#4644EF"/>
<path d="M34.488 45.8382C34.488 44.7694 34.171 43.7246 33.5773 42.836C32.9835 41.9473 32.1395 41.2547 31.1521 40.8457C30.1647 40.4367 29.0781 40.3297 28.0299 40.5382C26.9816 40.7467 26.0188 41.2613 25.263 42.0171C24.5073 42.7728 23.9926 43.7357 23.7841 44.7839C23.5756 45.8322 23.6826 46.9187 24.0916 47.9062C24.5006 48.8936 25.1932 49.7376 26.0819 50.3313C26.9705 50.9251 28.0153 51.2421 29.0841 51.2421C30.5168 51.2405 31.8904 50.6706 32.9035 49.6576C33.9166 48.6445 34.4864 47.2709 34.488 45.8382ZM26.2779 45.8382C26.2779 45.2832 26.4425 44.7406 26.7508 44.2791C27.0592 43.8177 27.4975 43.458 28.0102 43.2456C28.523 43.0332 29.0872 42.9776 29.6316 43.0859C30.1759 43.1942 30.6759 43.4614 31.0684 43.8539C31.4609 44.2464 31.7281 44.7464 31.8364 45.2907C31.9447 45.8351 31.8891 46.3993 31.6767 46.9121C31.4643 47.4249 31.1046 47.8631 30.6432 48.1715C30.1817 48.4798 29.6391 48.6444 29.0841 48.6444C28.3402 48.6434 27.627 48.3475 27.1009 47.8214C26.5749 47.2953 26.2789 46.5821 26.2779 45.8382Z" fill="#4644EF"/>
<path d="M90.319 62.0216H49.0334C52.7022 57.4925 54.7218 51.8503 54.7604 46.0218C54.799 40.1932 52.8544 34.5248 49.2459 29.9475C45.6374 25.3701 40.5795 22.156 34.903 20.8329C29.2265 19.5098 23.2688 20.1564 18.0083 22.6666C12.7478 25.1767 8.49735 29.4012 5.95494 34.6462C3.41253 39.8911 2.72934 45.8448 4.01756 51.5293C5.30578 57.2138 8.48883 62.2913 13.0439 65.9278C17.5991 69.5644 23.2554 71.5438 29.0841 71.5409H89.0202V73.5656C89.0202 73.9101 89.1571 74.2405 89.4006 74.484C89.6442 74.7276 89.9746 74.8644 90.319 74.8644C90.6635 74.8644 90.9939 74.7276 91.2374 74.484C91.481 74.2405 91.6179 73.9101 91.6179 73.5656V63.3234C91.6183 63.1526 91.5849 62.9834 91.5199 62.8255C91.4548 62.6676 91.3591 62.524 91.2385 62.4031C91.1179 62.2822 90.9745 62.1862 90.8168 62.1208C90.659 62.0553 90.4899 62.0216 90.319 62.0216ZM5.97982 45.8382C5.97982 41.2685 7.33492 36.8013 9.87377 33.0017C12.4126 29.2021 16.0212 26.2406 20.2431 24.4919C24.465 22.7431 29.1107 22.2856 33.5927 23.1772C38.0747 24.0688 42.1916 26.2694 45.4228 29.5008C48.6541 32.7321 50.8546 36.8491 51.746 41.3311C52.6375 45.8131 52.1798 50.4588 50.4309 54.6807C48.682 58.9025 45.7205 62.511 41.9208 65.0497C38.1211 67.5885 33.6539 68.9434 29.0841 68.9433C22.9585 68.9364 17.0857 66.4999 12.7542 62.1683C8.42281 57.8368 5.9865 51.9639 5.97982 45.8382ZM46.6049 64.6193H89.0202V68.9433H81.0558V67.2318C81.0558 66.8873 80.919 66.557 80.6754 66.3134C80.4318 66.0698 80.1014 65.933 79.757 65.933C79.4125 65.933 79.0821 66.0698 78.8386 66.3134C78.595 66.557 78.4581 66.8873 78.4581 67.2318V68.9433H71.7169V67.2318C71.7169 66.8873 71.58 66.557 71.3364 66.3134C71.0929 66.0698 70.7625 65.933 70.418 65.933C70.0735 65.933 69.7432 66.0698 69.4996 66.3134C69.256 66.557 69.1192 66.8873 69.1192 67.2318V68.9433H62.3779V67.2318C62.3779 66.8873 62.2411 66.557 61.9975 66.3134C61.7539 66.0698 61.4235 65.933 61.0791 65.933C60.7346 65.933 60.4042 66.0698 60.1607 66.3134C59.9171 66.557 59.7802 66.8873 59.7802 67.2318V68.9433H53.0382V67.2318C53.0382 66.8873 52.9014 66.557 52.6578 66.3134C52.4142 66.0698 52.0839 65.933 51.7394 65.933C51.3949 65.933 51.0646 66.0698 50.821 66.3134C50.5774 66.557 50.4406 66.8873 50.4406 67.2318V68.9433H40.3327C42.6257 67.8199 44.7394 66.3627 46.6049 64.6193Z" fill="#4644EF"/>
</svg>
