<svg width="79" height="79" viewBox="0 0 79 79" fill="none" xmlns="http://www.w3.org/2000/svg">
<path d="M75.8659 14.4879L64.5097 3.13163C64.3072 2.92924 64.0325 2.81555 63.7462 2.81555C63.4599 2.81555 63.1853 2.92924 62.9828 3.13163L10.5218 55.5926C10.4956 55.6212 10.4711 55.6513 10.4484 55.6827C10.4323 55.7024 10.4151 55.7203 10.4002 55.7413C10.3529 55.8084 10.3133 55.8807 10.2824 55.9567L6.01204 66.7964V66.8001L2.89277 74.7056C2.81559 74.9015 2.7973 75.1157 2.84017 75.3218C2.88304 75.528 2.98518 75.7171 3.13406 75.866C3.28294 76.0149 3.47207 76.117 3.67821 76.1599C3.88434 76.2027 4.09851 76.1845 4.2944 76.1073L12.2 72.9892L23.0372 68.7152C23.1131 68.6841 23.1854 68.6446 23.2526 68.5973C23.2735 68.5825 23.2914 68.5652 23.3143 68.5492C23.3454 68.5263 23.3752 68.5018 23.4038 68.4757L61.5027 30.378L75.8628 16.0173C75.9636 15.9171 76.0437 15.7981 76.0984 15.667C76.1531 15.5359 76.1814 15.3953 76.1817 15.2532C76.182 15.1111 76.1542 14.9704 76.1001 14.8391C76.0459 14.7078 75.9663 14.5884 75.8659 14.4879ZM60.7405 28.0858L50.9143 18.2595L53.9891 15.1828L63.8147 25.0085L60.7405 28.0858ZM22.644 66.1823L20.4838 64.0221L57.051 27.4513L59.2111 29.6114L22.644 66.1823ZM16.5067 60.045L53.0781 23.476L55.524 25.9219L18.9551 62.4933L16.5067 60.045ZM12.8178 56.356L49.3867 19.7871L51.5469 21.9472L14.9798 58.518L12.8178 56.356ZM7.41305 69.1318L9.86761 71.5864L5.81454 73.1849L7.41305 69.1318ZM12.058 70.7223L8.27712 66.9414L11.6914 58.2835L14.2145 60.8066L18.1867 64.7788L20.7097 67.3018L12.058 70.7223ZM65.3423 23.484L55.516 13.6578L63.7487 5.42572L73.5749 15.2513L65.3423 23.484Z" fill="#4644EF"/>
</svg>
