<svg width="90" height="90" viewBox="0 0 90 90" fill="none" xmlns="http://www.w3.org/2000/svg">
<path d="M85.5654 32.1624H76.616C76.47 31.3414 76.0397 30.5979 75.4005 30.0623C74.7613 29.5268 73.954 29.2333 73.1201 29.2333C72.2862 29.2333 71.4789 29.5268 70.8396 30.0623C70.2004 30.5979 69.7701 31.3414 69.6241 32.1624H67.2476V31.2786C68.4867 30.6044 69.5087 29.592 70.1945 28.3593C70.8803 27.1266 71.2017 25.7243 71.1211 24.316C71.0406 22.9077 70.5615 21.5512 69.7396 20.4047C68.9177 19.2582 67.7869 18.3689 66.4791 17.8404C66.292 17.7647 66.0891 17.7361 65.8884 17.7572C65.6877 17.7783 65.4952 17.8484 65.328 17.9615C65.1608 18.0745 65.024 18.2269 64.9295 18.4053C64.8351 18.5837 64.7861 18.7826 64.7866 18.9844V23.161L63.6876 24.0406L62.5894 23.161V18.9844C62.5892 18.7829 62.5396 18.5844 62.4449 18.4065C62.3502 18.2286 62.2132 18.0767 62.046 17.9641C61.8788 17.8514 61.6866 17.7816 61.4861 17.7607C61.2856 17.7397 61.0831 17.7683 60.8962 17.844C59.5884 18.3725 58.4577 19.2619 57.6359 20.4084C56.8141 21.5549 56.335 22.9114 56.2546 24.3197C56.1741 25.7281 56.4955 27.1303 57.1814 28.3629C57.8672 29.5956 58.8893 30.608 60.1284 31.2821V32.1659H29.8723V26.3581H32.0787C32.2403 26.3582 32.4003 26.3264 32.5497 26.2646C32.699 26.2028 32.8347 26.1122 32.9489 25.9979C33.0632 25.8836 33.1539 25.7479 33.2157 25.5986C33.2775 25.4493 33.3092 25.2892 33.3091 25.1276V18.9844C33.3091 18.6581 33.1795 18.3451 32.9487 18.1143C32.718 17.8836 32.405 17.754 32.0787 17.754H21.8918C21.5149 17.7469 18.0633 17.7237 15.7563 19.947C15.0798 20.6233 14.5514 21.4331 14.205 22.3248C13.8585 23.2165 13.7015 24.1705 13.744 25.1262C13.7442 25.3673 13.8152 25.6031 13.9483 25.8042C14.0813 26.0053 14.2704 26.163 14.4922 26.2575C14.714 26.3521 14.9587 26.3795 15.196 26.3362C15.4332 26.293 15.6525 26.181 15.8266 26.0143C15.8512 25.9904 18.0323 23.9365 20.6437 23.7214V25.1276C20.6437 25.454 20.7734 25.7669 21.0041 25.9977C21.2349 26.2285 21.5479 26.3581 21.8742 26.3581H22.7531V32.1659H4.4346C4.10826 32.1659 3.79529 32.2955 3.56453 32.5263C3.33377 32.7571 3.20413 33.07 3.20413 33.3964V44.5437C3.20413 44.8701 3.33377 45.183 3.56453 45.4138C3.79529 45.6445 4.10826 45.7742 4.4346 45.7742H8.23148V66.451C8.23296 67.9883 8.84428 69.4622 9.93126 70.5494C11.0183 71.6365 12.4921 72.248 14.0294 72.2496H29.2373C30.7747 72.248 32.2485 71.6365 33.3355 70.5494C34.4225 69.4622 35.0338 67.9883 35.0353 66.451V45.7735H54.9647V66.451C54.9662 67.9883 55.5775 69.4622 56.6645 70.5494C57.7515 71.6365 59.2253 72.248 60.7626 72.2496H75.9726C77.51 72.248 78.9838 71.6365 80.0708 70.5494C81.1578 69.4622 81.7691 67.9883 81.7706 66.451V45.7735H85.5675C85.8938 45.7735 86.2068 45.6438 86.4376 45.4131C86.6683 45.1823 86.798 44.8694 86.798 44.543V33.3929C86.798 33.2311 86.7661 33.0709 86.7041 32.9215C86.6421 32.7721 86.5513 32.6363 86.4368 32.522C86.3223 32.4078 86.1864 32.3172 86.0369 32.2554C85.8874 32.1937 85.7271 32.1621 85.5654 32.1624ZM72.0218 32.7952C72.0181 32.6486 72.0438 32.5027 72.0973 32.3662C72.1508 32.2296 72.2312 32.1052 72.3336 32.0002C72.4359 31.8952 72.5583 31.8117 72.6934 31.7548C72.8286 31.6978 72.9738 31.6684 73.1204 31.6684C73.2671 31.6684 73.4123 31.6978 73.5474 31.7548C73.6825 31.8117 73.8049 31.8952 73.9073 32.0002C74.0097 32.1052 74.09 32.2296 74.1435 32.3662C74.1971 32.5027 74.2228 32.6486 74.2191 32.7952V43.3125H72.0218V32.7952ZM69.5609 34.6233V43.3125H67.2476V34.6233H69.5609ZM58.7032 24.7409C58.7002 23.4348 59.2123 22.1801 60.1284 21.2492V23.7523C60.1283 23.9368 60.1697 24.1189 60.2496 24.2851C60.3294 24.4514 60.4457 24.5976 60.5897 24.7128L62.9184 26.5782C63.1367 26.753 63.408 26.8482 63.6876 26.8482C63.9673 26.8482 64.2386 26.753 64.4569 26.5782L66.7856 24.7135C66.9297 24.5983 67.0461 24.4522 67.126 24.2859C67.206 24.1196 67.2475 23.9375 67.2476 23.753V21.2499C67.821 21.8349 68.2413 22.5522 68.4715 23.3383C68.7017 24.1245 68.7346 24.9552 68.5673 25.7571C68.3999 26.559 68.0376 27.3073 67.5122 27.9358C66.9868 28.5643 66.3147 29.0536 65.5551 29.3604C65.328 29.4523 65.1335 29.61 64.9966 29.8132C64.8596 30.0164 64.7865 30.2559 64.7866 30.5009V43.3125H62.5894V30.5002C62.5893 30.2551 62.5161 30.0156 62.379 29.8124C62.242 29.6092 62.0474 29.4516 61.8201 29.3597C60.8981 28.9901 60.1082 28.3523 59.5525 27.5289C58.9968 26.7055 58.701 25.7343 58.7032 24.7409ZM60.1284 43.3125H52.3941V34.6233H60.1284V43.3125ZM49.9331 43.3125H40.0634V34.6233H49.9366L49.9331 43.3125ZM37.6024 34.6233V43.3125H29.8723V34.6233H37.6024ZM16.9826 22.2786C17.1225 22.08 17.2807 21.895 17.4551 21.7259C19.0723 20.1544 21.7877 20.2128 21.8334 20.2121H30.8482V23.8929H23.1047V22.5211C23.1039 22.2228 22.9947 21.935 22.7974 21.7112C22.6002 21.4874 22.3283 21.3429 22.0324 21.3047C20.2898 21.1219 18.5322 21.4608 16.9826 22.2786ZM27.4113 26.3567V43.3125H25.2141V26.3546L27.4113 26.3567ZM5.66507 34.6233H22.751V43.3125H20.5868V36.8691C20.5869 36.7075 20.5551 36.5474 20.4933 36.3981C20.4315 36.2488 20.3409 36.1131 20.2266 35.9988C20.1123 35.8846 19.9766 35.7939 19.8273 35.7321C19.678 35.6703 19.5179 35.6385 19.3563 35.6386H14.5357C14.3741 35.6385 14.214 35.6703 14.0647 35.7321C13.9154 35.7939 13.7797 35.8846 13.6654 35.9988C13.5511 36.1131 13.4605 36.2488 13.3987 36.3981C13.3369 36.5474 13.3051 36.7075 13.3052 36.8691V43.3125H5.66507V34.6233ZM15.7662 43.3125V38.0996H18.1259V43.3125H15.7662ZM32.5744 66.451C32.5734 67.3358 32.2216 68.1841 31.596 68.8098C30.9704 69.4356 30.1222 69.7876 29.2373 69.7887H14.0273C13.142 69.7883 12.2931 69.4366 11.6669 68.8108C11.0407 68.185 10.6884 67.3363 10.6875 66.451V45.7735H32.5744V66.451ZM79.3097 66.451C79.3087 67.3358 78.9569 68.1841 78.3313 68.8098C77.7057 69.4356 76.8575 69.7876 75.9726 69.7887H60.7626C59.8778 69.7876 59.0296 69.4356 58.404 68.8098C57.7784 68.1841 57.4265 67.3358 57.4256 66.451V45.7735H79.3125L79.3097 66.451ZM84.3349 43.3125H76.68V34.6233H84.3349V43.3125Z" fill="#4644EF"/>
<path d="M12.6563 52.9615C12.6562 53.1231 12.6879 53.2831 12.7497 53.4325C12.8115 53.5818 12.9022 53.7175 13.0164 53.8318C13.1307 53.946 13.2664 54.0367 13.4157 54.0985C13.5651 54.1603 13.7251 54.192 13.8867 54.192H29.3801C29.7064 54.192 30.0194 54.0623 30.2502 53.8316C30.4809 53.6008 30.6105 53.2878 30.6105 52.9615C30.6105 52.6351 30.4809 52.3222 30.2502 52.0914C30.0194 51.8607 29.7064 51.731 29.3801 51.731H13.8853C13.5592 51.7314 13.2466 51.8612 13.0161 52.0919C12.7857 52.3226 12.6562 52.6354 12.6563 52.9615Z" fill="#4644EF"/>
<path d="M59.3894 52.9615C59.3893 53.1231 59.4211 53.2831 59.4829 53.4325C59.5447 53.5818 59.6354 53.7175 59.7496 53.8318C59.8639 53.946 59.9996 54.0367 60.1489 54.0985C60.2982 54.1603 60.4583 54.192 60.6199 54.192H76.1147C76.441 54.192 76.754 54.0623 76.9847 53.8316C77.2155 53.6008 77.3451 53.2878 77.3451 52.9615C77.3451 52.6351 77.2155 52.3222 76.9847 52.0914C76.754 51.8607 76.441 51.731 76.1147 51.731H60.6199C60.2936 51.731 59.9806 51.8607 59.7498 52.0914C59.5191 52.3222 59.3894 52.6351 59.3894 52.9615Z" fill="#4644EF"/>
</svg>
