<svg width="55" height="55" viewBox="0 0 55 55" fill="none" xmlns="http://www.w3.org/2000/svg">
<path d="M37.542 29.3318C37.0362 29.3318 36.6264 29.7418 36.6264 30.2474V52.2233C36.6264 52.729 36.2164 53.1389 35.7108 53.1389H2.74694C2.24119 53.1389 1.83133 52.7289 1.83133 52.2233V2.7777C1.83133 2.27195 2.2413 1.86209 2.74694 1.86209H35.7107C36.2164 1.86209 36.6263 2.27206 36.6263 2.7777V8.27169C36.6263 8.77744 37.0362 9.1873 37.5419 9.1873C38.0475 9.1873 38.4575 8.77733 38.4575 8.27169V2.7777C38.4575 1.26056 37.2276 0.0307617 35.7105 0.0307617H2.74694C1.2299 0.0307617 0 1.26067 0 2.7777V52.2233C0 53.7404 1.2299 54.9702 2.74694 54.9702H35.7107C37.2278 54.9702 38.4576 53.7403 38.4576 52.2233V30.2475C38.4577 29.7418 38.0477 29.3318 37.542 29.3318Z" fill="#4744F1"/>
<path d="M53.659 3.14109C51.8766 1.35874 48.9888 1.35241 47.1986 3.12691L47.2005 3.12603L41.1718 9.15381L9.64736 40.68C9.63819 40.6883 9.63546 40.7002 9.62717 40.7084C9.55474 40.7838 9.49594 40.8711 9.45317 40.9666L9.44586 40.9822L5.56807 50.0307C5.44676 50.3136 5.47578 50.6385 5.6452 50.8955C5.81462 51.1525 6.10175 51.3071 6.40961 51.3072C6.53365 51.3074 6.65649 51.2822 6.77038 51.233L15.818 47.3553L15.8336 47.3479C15.9293 47.3056 16.0167 47.2467 16.0919 47.1739C16.1002 47.1657 16.112 47.1629 16.1202 47.1538L47.6455 15.6304L53.6732 9.60174C55.4477 7.81143 55.4414 4.92354 53.659 3.14109ZM8.14941 48.6517L10.5997 42.9343L13.8668 46.2014L8.14941 48.6517ZM15.4746 45.2116L11.5895 41.3265L41.82 11.097L45.7043 14.9812L15.4746 45.2116ZM46.999 13.6864L43.1147 9.80214L44.6101 8.30595L48.4952 12.191L46.999 13.6864ZM52.3803 8.31053L52.3757 8.30965L49.7853 10.9L45.9048 7.01124L48.4952 4.42543C49.1892 3.73139 50.2007 3.4604 51.1487 3.71437C52.0967 3.96844 52.8373 4.70885 53.0913 5.65697C53.3453 6.60498 53.0743 7.61648 52.3803 8.31053Z" fill="#4744F1"/>
<path d="M30.2168 8.27112H8.24093C7.73518 8.27112 7.32532 8.68109 7.32532 9.18673C7.32532 9.69237 7.73529 10.1023 8.24093 10.1023H30.2168C30.7225 10.1023 31.1324 9.69237 31.1324 9.18673C31.1324 8.68109 30.7224 8.27112 30.2168 8.27112Z" fill="#4744F1"/>
<path d="M31.1324 14.6807C31.1324 14.175 30.7224 13.7651 30.2168 13.7651H8.24093C7.73518 13.7651 7.32532 14.1751 7.32532 14.6807C7.32532 15.1864 7.73529 15.5964 8.24093 15.5964H30.2168C30.7224 15.5965 31.1324 15.1865 31.1324 14.6807Z" fill="#4744F1"/>
<path d="M8.24093 19.259C7.73518 19.259 7.32532 19.669 7.32532 20.1746C7.32532 20.6803 7.73529 21.0903 8.24093 21.0903H24.7228C25.2285 21.0903 25.6384 20.6803 25.6384 20.1746C25.6384 19.669 25.2284 19.259 24.7228 19.259H8.24093Z" fill="#4744F1"/>
</svg>
