<svg width="50" height="50" viewBox="0 0 50 50" fill="none" xmlns="http://www.w3.org/2000/svg">
<circle cx="25" cy="25" r="25" fill="#373747"/>
<path d="M25 23.1667C29.0501 23.1667 32.3333 19.8834 32.3333 15.8333C32.3333 11.7832 29.0501 8.5 25 8.5C20.9499 8.5 17.6667 11.7832 17.6667 15.8333C17.6667 19.8834 20.9499 23.1667 25 23.1667Z" stroke="white" stroke-width="2.75" stroke-linecap="round" stroke-linejoin="round"/>
<path d="M14 41.5V37.8333C14 35.8884 14.7726 34.0232 16.1479 32.6479C17.5232 31.2726 19.3884 30.5 21.3333 30.5H28.6667C30.6116 30.5 32.4768 31.2726 33.8521 32.6479C35.2274 34.0232 36 35.8884 36 37.8333V41.5" stroke="white" stroke-width="2.75" stroke-linecap="round" stroke-linejoin="round"/>
</svg>
