<svg width="51" height="52" viewBox="0 0 51 52" fill="none" xmlns="http://www.w3.org/2000/svg">
<g clip-path="url(#clip0)">
<path d="M49.6618 39.8434L39.3392 32.9594C38.0292 32.0929 36.2732 32.378 35.3048 33.6147L32.2979 37.4807C31.9115 37.9903 31.2091 38.1381 30.65 37.8275L30.0781 37.5122C28.182 36.4787 25.8228 35.1921 21.0694 30.437C16.3161 25.682 15.0268 23.321 13.9933 21.4284L13.6797 20.8564C13.3649 20.2975 13.5099 19.5921 14.0196 19.2025L17.8831 16.1966C19.1193 15.228 19.4048 13.4726 18.5392 12.1622L11.6553 1.83962C10.7682 0.505255 8.98841 0.104686 7.6151 0.930225L3.29857 3.52317C1.94229 4.32052 0.947243 5.61187 0.522074 7.1266C-1.0323 12.7901 0.13704 22.5646 14.5356 36.9648C25.9894 48.4177 34.5162 51.4977 40.3769 51.4977C41.7258 51.5035 43.0693 51.328 44.3714 50.9759C45.8864 50.5512 47.178 49.5561 47.9748 48.1994L50.5704 43.8855C51.3971 42.5119 50.9967 40.731 49.6618 39.8434ZM49.1059 43.0134L46.5164 47.33C45.9442 48.3092 45.0153 49.0291 43.9242 49.3391C38.6958 50.7745 29.5614 49.5856 15.7381 35.7623C1.9149 21.9391 0.726043 12.8055 2.1615 7.57627C2.47184 6.48392 3.1927 5.5538 4.17311 4.98074L8.48964 2.39118C9.08552 2.03264 9.85797 2.20643 10.2429 2.78547L13.9824 8.39972L17.121 13.1072C17.4969 13.6755 17.3734 14.4373 16.8372 14.8579L12.9728 17.8639C11.7968 18.7631 11.4609 20.3902 12.185 21.6816L12.4918 22.2391C13.578 24.2312 14.9284 26.7094 19.8586 31.6387C24.7887 36.568 27.2661 37.9185 29.2573 39.0045L29.8156 39.3122C31.1069 40.0361 32.7341 39.7004 33.6333 38.5244L36.6393 34.66C37.0599 34.1241 37.8214 34.0007 38.39 34.3762L48.7117 41.2602C49.2912 41.6448 49.465 42.4176 49.1059 43.0134Z" fill="#4744F1"/>
<path d="M28.8985 9.00437C36.8741 9.01323 43.3374 15.4766 43.3464 23.4523C43.3464 23.9216 43.7268 24.3021 44.1962 24.3021C44.6656 24.3021 45.0461 23.9216 45.0461 23.4523C45.0362 14.5382 37.8125 7.31445 28.8985 7.30469C28.4291 7.30469 28.0486 7.68514 28.0486 8.15453C28.0486 8.62392 28.4291 9.00437 28.8985 9.00437Z" fill="#4744F1"/>
<path d="M28.8985 14.1036C34.0591 14.1097 38.2411 18.2917 38.2471 23.4523C38.2471 23.9216 38.6277 24.3021 39.097 24.3021C39.5664 24.3021 39.9468 23.9216 39.9468 23.4523C39.9397 17.3533 34.9974 12.4109 28.8985 12.4039C28.4291 12.4039 28.0486 12.7844 28.0486 13.2538C28.0486 13.7232 28.4291 14.1036 28.8985 14.1036Z" fill="#4744F1"/>
<path d="M28.8985 19.2029C31.2441 19.2056 33.145 21.1065 33.1479 23.4523C33.1479 23.9216 33.5284 24.3021 33.9977 24.3021C34.467 24.3021 34.8476 23.9216 34.8476 23.4523C34.8438 20.1682 32.1825 17.5069 28.8985 17.5032C28.4291 17.5032 28.0486 17.8836 28.0486 18.353C28.0486 18.8224 28.4291 19.2029 28.8985 19.2029Z" fill="#4744F1"/>
</g>
<defs>
<clipPath id="clip0">
<rect width="51" height="51" fill="white" transform="translate(0 0.5)"/>
</clipPath>
</defs>
</svg>
