<svg width="55" height="55" viewBox="0 0 55 55" fill="none" xmlns="http://www.w3.org/2000/svg">
<path d="M52.25 0H2.75C1.23116 0 0 1.23116 0 2.75V44C0 45.5187 1.23116 46.75 2.75 46.75H22V53.1666H13.75C13.2437 53.1666 12.8334 53.577 12.8334 54.0833C12.8334 54.5895 13.2437 55 13.75 55H41.25C41.7563 55 42.1666 54.5896 42.1666 54.0834C42.1666 53.5771 41.7563 53.1667 41.25 53.1667H23.8334V46.75H31.1667V49.5C31.1667 50.0063 31.5771 50.4166 32.0834 50.4166C32.5896 50.4166 33 50.0063 33 49.5V46.75H52.25C53.7687 46.75 55 45.5188 55 44V2.75C55 1.23116 53.7688 0 52.25 0ZM53.1666 44C53.1666 44.5063 52.7563 44.9166 52.25 44.9166H2.75C2.24372 44.9166 1.83337 44.5063 1.83337 44V39.4166H53.1667V44H53.1666ZM53.1666 37.5834H1.83337V2.75C1.83337 2.24372 2.24372 1.83337 2.75 1.83337H52.25C52.7563 1.83337 53.1666 2.24372 53.1666 2.75V37.5834Z" fill="#4744F1"/>
<path d="M46.75 8.25H8.25C7.23744 8.25 6.41663 9.07081 6.41663 10.0834V29.3334C6.41663 30.3459 7.23744 31.1667 8.25 31.1667H41.25C41.7563 31.1667 42.1666 30.7564 42.1666 30.2501C42.1666 29.7438 41.7563 29.3335 41.25 29.3335H8.25V10.0835H46.75V30.25C46.75 30.7563 47.1603 31.1666 47.6666 31.1666C48.1729 31.1666 48.5833 30.7563 48.5833 30.25V10.0834C48.5834 9.07081 47.7626 8.25 46.75 8.25Z" fill="#4744F1"/>
<path d="M16.5 21.0577C18.7049 20.8111 20.3198 18.8648 20.1554 16.6523C19.9909 14.4398 18.1056 12.7538 15.8886 12.8361C13.6715 12.9185 11.9166 14.7398 11.9167 16.9585C11.9167 17.4647 12.3271 17.8751 12.8334 17.8751C13.3397 17.8751 13.75 17.4647 13.75 16.9585C13.75 15.6928 14.776 14.6668 16.0416 14.6668C17.3073 14.6668 18.3333 15.6928 18.3333 16.9585C18.3333 18.2241 17.3073 19.2501 16.0416 19.2501H15.5833C15.077 19.2501 14.6666 19.6604 14.6666 20.1667V22C14.6666 22.5063 15.077 22.9166 15.5833 22.9166C16.0895 22.9166 16.4999 22.5062 16.4999 22V21.0577H16.5Z" fill="#4744F1"/>
<path d="M14.9325 25.0158C14.578 25.3772 14.578 25.9559 14.9325 26.3174C15.2913 26.6732 15.8703 26.6717 16.227 26.3138C16.5839 25.956 16.5839 25.377 16.227 25.0192C15.8703 24.6615 15.2913 24.6599 14.9325 25.0158Z" fill="#4744F1"/>
<path d="M36.6666 16.5C36.6666 15.9937 36.2562 15.5834 35.75 15.5834H23.8334C23.3271 15.5834 22.9167 15.9938 22.9167 16.5C22.9167 17.0063 23.3271 17.4166 23.8334 17.4166H35.75C36.2563 17.4166 36.6666 17.0063 36.6666 16.5Z" fill="#4744F1"/>
<path d="M42.1666 15.5834H39.4166C38.9104 15.5834 38.5 15.9938 38.5 16.5C38.5 17.0063 38.9104 17.4166 39.4166 17.4166H42.1666C42.6729 17.4166 43.0833 17.0062 43.0833 16.5C43.0834 15.9937 42.6729 15.5834 42.1666 15.5834Z" fill="#4744F1"/>
<path d="M30.25 19.25H23.8334C23.3271 19.25 22.9167 19.6604 22.9167 20.1666C22.9167 20.6729 23.3271 21.0833 23.8334 21.0833H30.25C30.7563 21.0833 31.1666 20.6729 31.1666 20.1666C31.1666 19.6604 30.7563 19.25 30.25 19.25Z" fill="#4744F1"/>
<path d="M42.1666 19.25H33.9166C33.4104 19.25 33 19.6604 33 20.1666C33 20.6729 33.4104 21.0833 33.9166 21.0833H42.1666C42.6729 21.0833 43.0833 20.6729 43.0833 20.1666C43.0833 19.6604 42.6729 19.25 42.1666 19.25Z" fill="#4744F1"/>
<path d="M30.25 22.9166H23.8334C23.3271 22.9166 22.9167 23.327 22.9167 23.8333C22.9167 24.3395 23.3271 24.7499 23.8334 24.7499H30.25C30.7563 24.7499 31.1666 24.3395 31.1666 23.8333C31.1666 23.327 30.7563 22.9166 30.25 22.9166Z" fill="#4744F1"/>
<path d="M33.9166 22.9166C33.4104 22.9166 33 23.327 33 23.8333C33 24.3395 33.4104 24.7499 33.9166 24.7499H37.5833C38.0895 24.7499 38.4999 24.3395 38.4999 23.8333C38.4999 23.327 38.0895 22.9166 37.5833 22.9166H33.9166Z" fill="#4744F1"/>
<path d="M42.1666 22.9166H41.25C40.7437 22.9166 40.3334 23.327 40.3334 23.8333C40.3334 24.3395 40.7437 24.7499 41.25 24.7499H42.1666C42.6729 24.7499 43.0833 24.3395 43.0833 23.8333C43.0833 23.327 42.6729 22.9166 42.1666 22.9166Z" fill="#4744F1"/>
</svg>
